<svg width="167.6" height="35.2" viewBox="0 0 167.6 35.2" xmlns="http://www.w3.org/2000/svg" role="img" aria-label="CLAW"><circle cx="9.6" cy="2.6" r="2.6" fill="#141412"/><circle cx="16.6" cy="2.6" r="2.6" fill="#141412"/><circle cx="23.6" cy="2.6" r="2.6" fill="#141412"/><circle cx="2.6" cy="9.6" r="2.6" fill="#141412"/><circle cx="2.6" cy="16.6" r="2.6" fill="#141412"/><circle cx="2.6" cy="23.6" r="2.6" fill="#141412"/><circle cx="9.6" cy="30.6" r="2.6" fill="#141412"/><circle cx="16.6" cy="30.6" r="2.6" fill="#141412"/><circle cx="23.6" cy="30.6" r="2.6" fill="#141412"/><circle cx="39.7" cy="2.6" r="2.6" fill="#141412"/><circle cx="39.7" cy="9.6" r="2.6" fill="#141412"/><circle cx="39.7" cy="16.6" r="2.6" fill="#141412"/><circle cx="39.7" cy="23.6" r="2.6" fill="#141412"/><circle cx="39.7" cy="30.6" r="2.6" fill="#141412"/><circle cx="46.7" cy="30.6" r="2.6" fill="#141412"/><circle cx="53.7" cy="30.6" r="2.6" fill="#141412"/><circle cx="60.7" cy="30.6" r="2.6" fill="#141412"/><circle cx="83.8" cy="2.6" r="2.6" fill="#141412"/><circle cx="90.8" cy="2.6" r="2.6" fill="#141412"/><circle cx="76.8" cy="9.6" r="2.6" fill="#141412"/><circle cx="97.8" cy="9.6" r="2.6" fill="#141412"/><circle cx="76.8" cy="16.6" r="2.6" fill="#141412"/><circle cx="83.8" cy="16.6" r="2.6" fill="#141412"/><circle cx="90.8" cy="16.6" r="2.6" fill="#141412"/><circle cx="97.8" cy="16.6" r="2.6" fill="#141412"/><circle cx="76.8" cy="23.6" r="2.6" fill="#141412"/><circle cx="97.8" cy="23.6" r="2.6" fill="#141412"/><circle cx="76.8" cy="30.6" r="2.6" fill="#141412"/><circle cx="97.8" cy="30.6" r="2.6" fill="#141412"/><circle cx="113.9" cy="2.6" r="2.6" fill="#141412"/><circle cx="141.9" cy="2.6" r="2.6" fill="#141412"/><circle cx="113.9" cy="9.6" r="2.6" fill="#141412"/><circle cx="141.9" cy="9.6" r="2.6" fill="#141412"/><circle cx="113.9" cy="16.6" r="2.6" fill="#141412"/><circle cx="127.9" cy="16.6" r="2.6" fill="#141412"/><circle cx="141.9" cy="16.6" r="2.6" fill="#141412"/><circle cx="113.9" cy="23.6" r="2.6" fill="#141412"/><circle cx="127.9" cy="23.6" r="2.6" fill="#141412"/><circle cx="141.9" cy="23.6" r="2.6" fill="#141412"/><circle cx="120.9" cy="30.6" r="2.6" fill="#141412"/><circle cx="134.9" cy="30.6" r="2.6" fill="#141412"/><circle cx="158.0" cy="30.6" r="2.6" fill="#FF3D00"/></svg>